Coordinates
version=1
nRows=16
nColumns=40
inDegrees=yes

Units are S.I. units (second, meters, Newtons, ...)
If the header above contains a line with 'inDegrees', this indicates whether rotational values are in degrees (yes) or radians (no).

endheader
time	pelvis_tilt	pelvis_list	pelvis_rotation	pelvis_tx	pelvis_ty	pelvis_tz	hip_flexion_r	hip_adduction_r	hip_rotation_r	knee_angle_r	knee_angle_r_beta	ankle_angle_r	subtalar_angle_r	mtp_angle_r	hip_flexion_l	hip_adduction_l	hip_rotation_l	knee_angle_l	knee_angle_l_beta	ankle_angle_l	subtalar_angle_l	mtp_angle_l	lumbar_extension	lumbar_bending	lumbar_rotation	arm_flex_r	arm_add_r	arm_rot_r	elbow_flex_r	pro_sup_r	wrist_flex_r	wrist_dev_r	arm_flex_l	arm_add_l	arm_rot_l	elbow_flex_l	pro_sup_l	wrist_flex_l	wrist_dev_l
      0.73000000	      2.25113666	     -9.92432525	     88.79721591	      0.18014108	      0.86709610	      0.92554680	    -16.71174243	      5.98885104	      6.86851575	      3.84096979	      0.06703757	      6.51737031	      0.00000000	      0.00000000	     39.48513046	     -0.64913513	      1.25700426	      2.34056213	      0.04085052	      3.48351113	      0.00000000	      0.00000000	      4.61536418	      0.60048115	      5.39771185	      0.00000000	      0.00000000	      0.00000000	      0.00000000	      0.00000000	      0.00000000	      0.00000000	      0.00000000	      0.00000000	      0.00000000	      0.00000000	      0.00000000	      0.00000000	      0.00000000
      0.74000000	      1.72917137	    -10.05428587	     88.71579660	      0.17949648	      0.86646237	      0.90490433	    -16.05031023	      5.32413350	      5.35241394	      6.76365531	      0.11804805	      4.45623243	     -0.00000000	      0.00000000	     39.90010341	     -0.05178829	     -0.06414551	      4.53999699	      0.07923790	      1.84741775	      0.00000000	     -0.00000000	      4.98168100	     -0.02429566	      5.21525562	      0.00000000	      0.00000000	      0.00000000	      0.00000000	      0.00000000	     -0.00000000	     -0.00000000	      0.00000000	      0.00000000	      0.00000000	      0.00000000	      0.00000000	     -0.00000000	      0.00000000
      0.75000000	      1.16511178	    -10.12027931	     88.65276513	      0.17881757	      0.86645139	      0.88424151	    -15.12758677	      4.53407468	      3.70115084	     10.11923866	      0.17661403	      1.79440005	      0.00000000	      0.00000000	     40.27859404	      0.52296728	     -1.36741627	      7.03075471	      0.12270982	     -0.16443903	      0.00000000	      0.00000000	      5.28477505	     -0.69798085	      4.99063576	      0.00000000	      0.00000000	      0.00000000	      0.00000000	      0.00000000	      0.00000000	      0.00000000	      0.00000000	      0.00000000	      0.00000000	      0.00000000	      0.00000000	      0.00000000	      0.00000000
      0.76000000	      0.53657416	    -10.23084072	     88.62080467	      0.17803127	      0.86688558	      0.86362274	    -13.82247645	      3.57746871	      2.00468527	     13.91482183	      0.24285946	     -1.38982609	      0.00000000	      0.00000000	     40.66626178	      1.11906638	     -2.45793227	      9.59656048	      0.16749158	     -2.23444751	      0.00000000	      0.00000000	      5.65070113	     -1.44010989	      4.73250467	      0.00000000	      0.00000000	      0.00000000	      0.00000000	      0.00000000	      0.00000000	      0.00000000	      0.00000000	      0.00000000	      0.00000000	      0.00000000	      0.00000000	      0.00000000	      0.00000000
      0.77000000	     -0.12713200	    -10.22903625	     88.62406856	      0.17711242	      0.86799980	      0.84305391	    -12.34488834	      2.47906206	      0.39590629	     18.07409828	      0.31545252	     -5.02930239	      0.00000000	      0.00000000	     40.86452414	      1.73587332	     -3.28581162	     12.14567615	      0.21198204	     -4.00620170	      0.00000000	      0.00000000	      5.88098118	     -2.21804649	      4.43370343	      0.00000000	      0.00000000	      0.00000000	      0.00000000	      0.00000000	      0.00000000	      0.00000000	      0.00000000	      0.00000000	      0.00000000	      0.00000000	      0.00000000	      0.00000000	      0.00000000
      0.78000000	     -0.77092818	    -10.34529595	     88.63679752	      0.17614409	      0.86942067	      0.82274683	    -10.40917103	      1.32417926	     -0.90433851	     22.66490320	      0.39557719	     -8.77260808	      0.00000000	      0.00000000	     41.07861812	      2.33277912	     -3.78049166	     14.55030950	      0.25395081	     -5.28630704	      0.00000000	      0.00000000	      6.24026808	     -2.95370102	      4.10195642	      0.00000000	      0.00000000	      0.00000000	      0.00000000	      0.00000000	      0.00000000	      0.00000000	      0.00000000	      0.00000000	      0.00000000	      0.00000000	      0.00000000	      0.00000000	      0.00000000
      0.79000000	     -1.53495200	    -10.18540200	     88.67070006	      0.17503886	      0.87165614	      0.80241294	     -8.60660668	     -0.01297041	     -1.91804600	     27.37556833	      0.47779380	    -12.46964624	      0.00000000	      0.00000000	     40.81408057	      3.06012463	     -4.24919833	     16.70431319	      0.29154526	     -5.93276579	      0.00000000	      0.00000000	      6.27822302	     -3.82477190	      3.73530596	      0.00000000	      0.00000000	      0.00000000	      0.00000000	      0.00000000	      0.00000000	      0.00000000	      0.00000000	      0.00000000	      0.00000000	      0.00000000	      0.00000000	      0.00000000	      0.00000000
      0.80000000	     -2.30836016	    -10.19772277	     88.66550953	      0.17385884	      0.87406940	      0.78259600	     -6.33127969	     -1.34976947	     -2.41240321	     32.34559838	      0.56453719	    -15.54280156	      0.00000000	      0.00000000	     40.51029010	      3.82047062	     -4.51685632	     18.44689575	      0.32195907	     -6.04943053	      0.00000000	      0.00000000	      6.46440543	     -4.66195898	      3.36857973	      0.00000000	      0.00000000	      0.00000000	      0.00000000	      0.00000000	      0.00000000	      0.00000000	      0.00000000	      0.00000000	      0.00000000	      0.00000000	      0.00000000	      0.00000000	      0.00000000
      0.81000000	     -2.97352574	    -10.43305691	     88.65014387	      0.17277377	      0.87647258	      0.76338807	     -3.57294302	     -2.48173242	     -2.42546756	     37.42660949	      0.65321756	    -17.54590814	      0.00000000	      0.00000000	     40.25104536	      4.48572062	     -4.69218822	     19.82280553	      0.34597322	     -5.75813318	      0.00000000	      0.00000000	      6.87754078	     -5.36152922	      3.04362465	      0.00000000	      0.00000000	      0.00000000	      0.00000000	      0.00000000	      0.00000000	      0.00000000	      0.00000000	      0.00000000	      0.00000000	      0.00000000	      0.00000000	      0.00000000	      0.00000000
      0.82000000	     -3.78163635	    -10.36182619	     88.64011664	      0.17158441	      0.87961524	      0.74427784	     -1.12677315	     -3.71217350	     -2.23237554	     42.16064200	      0.73584202	    -18.79409450	      0.00000000	      0.00000000	     39.36449091	      5.33599525	     -4.99708951	     20.68580128	      0.36103534	     -5.08709369	      0.00000000	      0.00000000	      6.90693197	     -6.21658801	      2.67812236	      0.00000000	      0.00000000	      0.00000000	      0.00000000	      0.00000000	      0.00000000	      0.00000000	      0.00000000	      0.00000000	      0.00000000	      0.00000000	      0.00000000	      0.00000000	      0.00000000
      0.83000000	     -4.53887096	    -10.59088334	     88.55406971	      0.17046920	      0.88259518	      0.72584255	      1.81670496	     -4.73397080	     -1.58135369	     46.69750178	      0.81502516	    -18.81065628	      0.00000000	      0.00000000	     38.53606056	      6.15499702	     -5.17323630	     21.01957437	      0.36686078	     -4.23315331	      0.00000000	      0.00000000	      7.24958931	     -6.96814832	      2.35891983	      0.00000000	      0.00000000	      0.00000000	      0.00000000	      0.00000000	      0.00000000	      0.00000000	      0.00000000	      0.00000000	      0.00000000	      0.00000000	      0.00000000	      0.00000000	      0.00000000
      0.84000000	     -5.10408348	    -11.02314557	     88.46549554	      0.16954889	      0.88547723	      0.70799263	      5.05467514	     -5.36673908	     -0.66844126	     50.78428876	      0.88635305	    -17.89179221	      0.00000000	      0.00000000	     37.78773297	      6.78105672	     -5.34485358	     21.09068996	      0.36810198	     -3.39472883	      0.00000000	      0.00000000	      7.78568095	     -7.50793215	      2.04419752	      0.00000000	      0.00000000	      0.00000000	      0.00000000	      0.00000000	      0.00000000	      0.00000000	      0.00000000	      0.00000000	      0.00000000	      0.00000000	      0.00000000	      0.00000000	      0.00000000
      0.85000000	     -5.75622021	    -11.12317279	     88.33038529	      0.16851628	      0.88910971	      0.69015769	      7.88197483	     -6.05071692	      0.27653536	     54.17739673	      0.94557395	    -16.42461884	      0.00000000	      0.00000000	     36.34147911	      7.56472979	     -5.46542495	     20.53494433	      0.35840239	     -2.35887982	      0.00000000	      0.00000000	      7.93224156	     -8.09090653	      1.77221211	      0.00000000	      0.00000000	      0.00000000	      0.00000000	      0.00000000	      0.00000000	      0.00000000	      0.00000000	      0.00000000	      0.00000000	      0.00000000	      0.00000000	      0.00000000	      0.00000000
      0.86000000	     -6.25848087	    -11.34133031	     88.16798398	      0.16764673	      0.89271506	      0.67269836	     10.86396256	     -6.43534488	      1.33949050	     56.99031231	      0.99466859	    -14.35352778	      0.00000000	      0.00000000	     34.87495979	      8.20168840	     -5.50041009	     19.69108109	      0.34367420	     -1.41966357	      0.00000000	      0.00000000	      8.19057539	     -8.49714469	      1.53479292	      0.00000000	      0.00000000	      0.00000000	      0.00000000	      0.00000000	      0.00000000	      0.00000000	      0.00000000	      0.00000000	      0.00000000	      0.00000000	      0.00000000	      0.00000000	      0.00000000
      0.87000000	     -6.62325178	    -11.61067256	     87.97123700	      0.16696125	      0.89628684	      0.65554201	     13.89344289	     -6.54825039	      2.47517591	     59.19807919	      1.03320139	    -11.97334955	      0.00000000	     -0.00000000	     33.37372342	      8.69108506	     -5.48884390	     18.66511621	      0.32576773	     -0.56282595	      0.00000000	     -0.00000000	      8.49111444	     -8.74210424	      1.32437220	     -0.00000000	     -0.00000000	     -0.00000000	      0.00000000	      0.00000000	      0.00000000	      0.00000000	      0.00000000	     -0.00000000	      0.00000000	      0.00000000	      0.00000000	      0.00000000	      0.00000000
      0.88000000	     -6.78918658	    -11.79749003	     87.74804002	      0.16645254	      0.90009153	      0.63845499	     16.72617355	     -6.32835163	      3.64290137	     60.66609230	      1.05882305	     -9.68614442	      0.00000000	      0.00000000	     31.64878686	      8.98148336	     -5.39139507	     17.40333390	      0.30374548	      0.26148710	      0.00000000	      0.00000000	      8.69354792	     -8.73192563	      1.12490511	      0.00000000	      0.00000000	      0.00000000	      0.00000000	      0.00000000	      0.00000000	      0.00000000	      0.00000000	      0.00000000	      0.00000000	      0.00000000	      0.00000000	      0.00000000	      0.00000000
